<?xml version="1.0" standalone="no"?><!DOCTYPE svg PUBLIC "-//W3C//DTD SVG 1.1//EN" "http://www.w3.org/Graphics/SVG/1.1/DTD/svg11.dtd"><svg t="1758694235656" class="icon" viewBox="0 0 1024 1024" version="1.1" xmlns="http://www.w3.org/2000/svg" p-id="11362" xmlns:xlink="http://www.w3.org/1999/xlink" width="200" height="200"><path d="M232.539104 447.874649a297.422415 296.869585 0 1 0 594.84483 0 297.422415 296.869585 0 1 0-594.84483 0Z" fill="#FAD700" p-id="11363"></path><path d="M330.389973 228.954061a297.422415 297.422415 0 1 1 333.35635 485.384536 297.422415 297.422415 0 0 0-333.35635-485.384536z" fill="#FFBE34" p-id="11364"></path><path d="M368.535227 199.654084a297.422415 297.422415 0 1 1 287.471479 518.554322 297.422415 297.422415 0 0 0-287.471479-518.554322z" fill="#FF9019" p-id="11365"></path><path d="M412.208778 410.835055m-22.11319 0a22.113191 22.113191 0 1 0 44.226381 0 22.113191 22.113191 0 1 0-44.226381 0Z" fill="" p-id="11366"></path><path d="M594.642602 410.835055m-22.113191 0a22.113191 22.113191 0 1 0 44.226381 0 22.113191 22.113191 0 1 0-44.226381 0Z" fill="" p-id="11367"></path><path d="M453.671011 499.287818h113.330102a56.941466 56.941466 0 0 1-113.330102 0z" fill="#FF8472" p-id="11368"></path><path d="M510.059647 564.52173a67.445232 67.445232 0 0 1-67.445232-65.233912 11.056595 11.056595 0 0 1 11.056596-11.609425h113.330102a11.056595 11.056595 0 0 1 11.056596 11.609425 67.445232 67.445232 0 0 1-67.998062 65.233912z m-43.673552-54.177317a45.884871 45.884871 0 0 0 87.347104 0z" fill="" p-id="11369"></path><path d="M627.812388 503.157626a25.430169 25.430169 0 1 0 50.860338 0 25.430169 25.430169 0 1 0-50.860338 0Z" fill="#FF9218" p-id="11370"></path><path d="M487.393627 780.12534a319.535606 319.535606 0 0 1-319.535606-318.982776A316.218627 316.218627 0 0 1 197.157999 327.35776a22.256926 22.256926 0 0 1 40.356573 18.796212 272.545075 272.545075 0 0 0-25.43017 114.988592 275.309224 275.309224 0 0 0 473.775111 190.17344 22.113191 22.113191 0 1 1 32.064127 30.405637 316.771457 316.771457 0 0 1-230.530013 98.403699z m250.431884-137.101783a22.113191 22.113191 0 0 1-18.796212-34.275445 273.650735 273.650735 0 0 0 29.852808-62.469764 22.113191 22.113191 0 1 1 42.015062 13.820744 318.429946 318.429946 0 0 1-34.275446 72.4207 22.113191 22.113191 0 0 1-18.796212 10.503765z m46.990531-160.320632a22.113191 22.113191 0 0 1-22.113191-22.113191 275.309224 275.309224 0 0 0-275.309224-274.756395l-26.535829 1.10566a22.223757 22.223757 0 0 1-4.422638-44.226381l30.958467-1.65849A319.535606 319.535606 0 0 1 806.929232 460.036904a22.113191 22.113191 0 0 1-22.11319 23.21885zM260.733422 290.870995a22.113191 22.113191 0 0 1-16.584893-36.486764 321.194095 321.194095 0 0 1 58.047125-53.071658 22.168474 22.168474 0 1 1 25.983 35.933935 276.967714 276.967714 0 0 0-49.75468 45.884871 22.113191 22.113191 0 0 1-17.690552 7.739616zM367.429567 211.263509a22.113191 22.113191 0 0 1-8.845276-42.567892l27.088658-10.503766a22.201643 22.201643 0 0 1 14.373574 42.015062l-23.77168 8.845277a22.113191 22.113191 0 0 1-8.845276 2.211319z" fill="" p-id="11371"></path><path d="M300.537165 503.157626a25.430169 25.430169 0 1 0 50.860339 0 25.430169 25.430169 0 1 0-50.860339 0Z" fill="#FF9218" p-id="11372"></path><path d="M549.310561 906.170527a16.584893 16.584893 0 0 1-16.584893-13.820744l-7.739617-44.779212a16.584893 16.584893 0 1 1 32.616956-5.528297l7.739617 44.779211a16.584893 16.584893 0 0 1-13.267915 19.349042z m-294.658267-73.526359a16.584893 16.584893 0 0 1-14.373574-24.87734l22.666021-39.250913a16.59595 16.59595 0 0 1 28.747148 16.584893l-22.666021 39.250913a16.584893 16.584893 0 0 1-14.373574 8.292447z m567.203342-59.152786a16.584893 16.584893 0 0 1-10.503766-3.869808l-34.828275-29.299978a16.667817 16.667817 0 1 1 21.560361-25.430169l34.828275 29.299978a16.584893 16.584893 0 0 1-10.503765 29.299977zM76.641109 587.187751a16.584893 16.584893 0 0 1-5.528297-32.064127l42.567892-15.479233a16.584893 16.584893 0 0 1 11.609425 30.958467L82.169407 586.082091z m824.269184-91.216912a16.584893 16.584893 0 0 1 0-33.169786h45.332041a16.584893 16.584893 0 0 1 0 33.169786h-45.332041zM140.769362 299.716272l-5.528297-1.10566L92.120343 283.131379a16.584893 16.584893 0 1 1 11.056595-30.958467l42.567892 15.479233a16.584893 16.584893 0 0 1-5.528297 32.064127z m687.167402-66.339573a16.584893 16.584893 0 0 1-10.503766-29.299977l34.828275-29.299978a16.667817 16.667817 0 0 1 21.560361 25.430169l-34.828275 29.299978a16.584893 16.584893 0 0 1-11.056595 3.869808zM331.495632 105.120193a16.584893 16.584893 0 0 1-14.373574-8.292446l-22.66602-39.250914a16.59595 16.59595 0 1 1 28.747148-16.584893l22.66602 39.250914a16.584893 16.584893 0 0 1-14.373574 24.877339z m271.439416-25.982999h-2.764149a16.584893 16.584893 0 0 1-13.267914-19.349042l7.739617-44.779211a16.584893 16.584893 0 1 1 32.616956 5.528298l-7.739617 44.779211a16.584893 16.584893 0 0 1-16.584893 13.820744z" fill="" p-id="11373"></path><path d="M554.838858 607.089622a211.733801 211.733801 0 1 1 216.709269 361.550668 211.733801 211.733801 0 0 0-217.262098-360.997838z" fill="#32B7FF" p-id="11374"></path><path d="M645.50294 1016.73648a203.994184 203.994184 0 1 0-204.547014-203.994184 203.994184 203.994184 0 0 0 204.547014 203.994184z" fill="#D2F7FF" p-id="11375"></path><path d="M480.20684 694.436726a203.441355 203.441355 0 1 1 303.503542 268.675267A203.441355 203.441355 0 0 0 480.20684 694.436726z" fill="#9CEDFF" p-id="11376"></path><path d="M643.291621 1023.923267A223.896056 223.896056 0 0 1 419.395565 800.027211a200.124376 200.124376 0 0 1 30.405637-110.013123 22.113191 22.113191 0 1 1 37.592425 23.21885 156.450824 156.450824 0 0 0-23.77168 86.794273 179.669674 179.669674 0 0 0 179.669674 179.669675 165.84893 165.84893 0 0 0 118.8584-44.779211 22.129776 22.129776 0 0 1 29.299978 33.169786 209.522482 209.522482 0 0 1-148.158378 55.835806z m168.613079-91.216911a22.113191 22.113191 0 0 1-18.243382-34.275446 179.669674 179.669674 0 0 0-208.969652-268.122437 22.201643 22.201643 0 1 1-14.373574-42.015063 223.896056 223.896056 0 0 1 259.829991 334.46201 22.113191 22.113191 0 0 1-18.243383 9.950936z m-311.243159-253.196034a22.113191 22.113191 0 0 1-15.479233-37.592424 225.001715 225.001715 0 0 1 30.958467-25.982999 22.113191 22.113191 0 1 1 24.877339 36.486764 180.775334 180.775334 0 0 0-24.877339 21.007532 22.113191 22.113191 0 0 1-15.479234 6.081127z" fill="" p-id="11377"></path><path d="M541.018114 717.102746a24.87734 24.87734 0 1 0 49.754679 0 24.87734 24.87734 0 1 0-49.754679 0Z" fill="" p-id="11378"></path><path d="M701.338747 717.102746a24.87734 24.87734 0 1 0 49.754679 0 24.87734 24.87734 0 1 0-49.754679 0Z" fill="" p-id="11379"></path><path d="M610.121835 830.432849a35.933935 35.933935 0 1 0 71.86787 0 35.933935 35.933935 0 1 0-71.86787 0Z" fill="#FF8472" p-id="11380"></path><path d="M646.05577 877.423379a46.99053 46.99053 0 1 1 46.99053-46.99053 46.99053 46.99053 0 0 1-46.99053 46.99053z m0-71.86787a24.87734 24.87734 0 1 0 24.87734 24.87734 24.87734 24.87734 0 0 0-24.87734-24.87734z" fill="" p-id="11381"></path><path d="M745.565128 831.538508a28.747148 28.747148 0 1 0 57.494296 0 28.747148 28.747148 0 1 0-57.494296 0Z" fill="#FAD700" p-id="11382"></path><path d="M520.010583 859.732826a28.747148 28.747148 0 1 0-28.747148-28.747148 28.747148 28.747148 0 0 0 28.747148 28.747148z" fill="#FAD700" p-id="11383"></path></svg>